<svg width="16" height="16" viewBox="0 0 16 16" fill="none" xmlns="http://www.w3.org/2000/svg">
<path d="M5.43772 0.130373C8.59829 -0.498008 11.7627 1.19305 12.9959 4.16996C14.2291 7.14719 13.1874 10.5814 10.5078 12.3714C7.82806 14.1613 4.25657 13.8091 1.97802 11.5304C0.711533 10.2637 -2.34495e-05 8.54563 5.79599e-10 6.75455C0.000108735 3.53215 2.27699 0.758881 5.43772 0.130373ZM1.88243 6.75455C1.88241 8.04642 2.39543 9.28583 3.30895 10.1995C4.95249 11.8432 7.52875 12.0972 9.46177 10.8061C11.3948 9.51492 12.1463 7.03799 11.2569 4.89055C10.3675 2.74322 8.08455 1.5226 5.80446 1.97599C3.52451 2.4294 1.88254 4.43038 1.88243 6.75455Z" fill="#FAFAFA"/>
<path d="M11.9016 11.9017C12.2691 11.5342 12.8649 11.5342 13.2325 11.9017L15.7243 14.3935C16.0919 14.7611 16.0919 15.3568 15.7243 15.7244C15.3568 16.0918 14.7609 16.0919 14.3934 15.7244L11.9016 13.2326C11.534 12.8651 11.534 12.2693 11.9016 11.9017Z" fill="#FAFAFA" />
</svg>
