<svg width="198" height="40" viewBox="0 0 198 40" fill="none" xmlns="http://www.w3.org/2000/svg">
<path d="M73.5787 10.3571H65.5226L86.1103 33.9286H68.387V40H96.1356V10.3571H90.2278V30L73.5787 10.3571Z" fill="#FAFAFA"/>
<path d="M134.984 40H140.712V26.7857C140.712 20.4739 144.244 15.7143 149.485 15.7143C154.725 15.7143 158.257 20.4739 158.257 26.7857V40H163.627V23.5643C162.547 16.0772 156.707 10.3571 149.664 10.3571C146.233 10.3571 143.123 11.7142 140.712 13.9715V10.3571H134.984V40Z" fill="#FAFAFA"/>
<path fill-rule="evenodd" clip-rule="evenodd" d="M0 0.178571H5.54973V13.322C8.16369 11.1577 11.3569 10 15.038 10C23.3432 10 30.0759 16.6358 30.0759 24.8214C30.0759 33.0071 23.3432 39.6429 15.038 39.6429C11.3569 39.6429 7.98466 38.3393 5.37071 36.1749V39.6429H0V0.178571ZM14.859 34.2857C20.0992 34.2857 24.3472 30.0484 24.3472 24.8214C24.3472 19.5944 20.0992 15.3571 14.859 15.3571C9.61874 15.3571 5.37071 19.5944 5.37071 24.8214C5.37071 30.0484 9.61874 34.2857 14.859 34.2857Z" fill="#FAFAFA"/>
<path fill-rule="evenodd" clip-rule="evenodd" d="M49.0524 39.6429C40.5495 39.6429 33.6564 32.8472 33.6564 24.4643C33.6564 16.0814 40.5495 9.28571 49.0524 9.28571C57.5554 9.28571 64.4485 16.0814 64.4485 24.4643C64.4485 25.441 64.3549 26.3961 64.1761 27.3214H39.763C40.9267 31.3439 44.6451 34.2857 49.0524 34.2857C51.6468 34.2857 54.0026 33.2663 55.7389 31.6071L60.7914 34.2857C57.9673 37.5632 53.7562 39.6429 49.0524 39.6429ZM49.0524 15C44.6451 15 40.9267 17.9418 39.763 21.9643H58.3419C57.1782 17.9418 53.4597 15 49.0524 15Z" fill="#FAFAFA"/>
<path fill-rule="evenodd" clip-rule="evenodd" d="M130.687 24.6429C130.687 32.9271 123.954 39.6429 115.649 39.6429C107.344 39.6429 100.611 32.9271 100.611 24.6429C100.611 16.3586 107.344 9.64286 115.649 9.64286C123.954 9.64286 130.687 16.3586 130.687 24.6429ZM115.828 34.6429C121.266 34.6429 125.674 30.2457 125.674 24.8214C125.674 19.3972 121.266 15 115.828 15C110.39 15 105.982 19.3972 105.982 24.8214C105.982 30.2457 110.39 34.6429 115.828 34.6429Z" fill="#FAFAFA"/>
<path fill-rule="evenodd" clip-rule="evenodd" d="M198 0H192.45V13.1435C189.836 10.9791 186.643 9.82143 182.962 9.82143C174.657 9.82143 167.924 16.4572 167.924 24.6429C167.924 32.8285 174.657 39.4643 182.962 39.4643C186.643 39.4643 190.015 38.1607 192.629 35.9963V39.4643H198V0ZM183.141 34.1071C177.901 34.1071 173.653 29.8698 173.653 24.6429C173.653 19.4159 177.901 15.1786 183.141 15.1786C188.381 15.1786 192.629 19.4159 192.629 24.6429C192.629 29.8698 188.381 34.1071 183.141 34.1071Z" fill="#FAFAFA"/>
</svg>
